<?xml version="1.0" encoding="UTF-8" standalone="no"?>
<!DOCTYPE svg PUBLIC "-//W3C//DTD SVG 1.1//EN" "http://www.w3.org/Graphics/SVG/1.1/DTD/svg11.dtd">
<svg width="100%" height="100%" viewBox="0 0 2732 1664" version="1.1" xmlns="http://www.w3.org/2000/svg" xmlns:xlink="http://www.w3.org/1999/xlink" xml:space="preserve" xmlns:serif="http://www.serif.com/" style="fill-rule:evenodd;clip-rule:evenodd;stroke-linejoin:round;stroke-miterlimit:2;">
    <g>
        <path d="M2115.26,1660.01L2090.61,1663.22C1982.96,1660.18 1935.61,1660.44 1880.79,1570.28L1838.06,1571.51C1788.32,1569.3 1809.05,1570.3 1775.87,1568.65C1720.39,1566.49 1729.28,1513.78 1719.52,1485.93C1703.9,1391.39 1740.18,1296.36 1739.03,1201.8C1738.63,1168.24 1691.13,1049.43 1674.16,1006.95C1620.97,1016.96 1567.48,1018.87 1513.52,1021.56C1389.12,1021.26 1265.57,1006.02 1142.92,986.682C1119.02,1085.42 1047.97,1223.62 1106.69,1323.97C1177.98,1427.77 1228,1456.53 1305.54,1462.79C1383.07,1469.04 1400.58,1556.58 1381.82,1587.85C1365.22,1609.46 1336.04,1613.38 1311.24,1618.61L1261.65,1620.94C1222.62,1619.63 1187.74,1609.09 1152.96,1592.84C1094.89,1560.43 1034.91,1493.03 990.349,1444.65C1000.72,1463.97 1006.91,1501.69 997.502,1519.24C971.155,1556.57 857.2,1556.34 805.013,1533.14C745.73,1506.8 602.479,1321.83 580.33,1183.3C639.252,1071.88 725.09,974.815 768.517,853.487C673.856,793.086 623.157,694.758 629.739,583.376L632.114,570.483C538.972,587.92 587.274,581.432 487.077,589.012C167.983,588.036 -112.635,371.679 45.377,35.422C55.652,15.511 65.427,-2.593 82.846,6.053C96.827,12.991 94.819,40.819 87.787,71.679C-2.535,473.46 438.903,476.535 710.263,402.188C737.196,394.807 790.76,345.101 827.865,328.622C888.516,301.689 954.348,290.762 1019.68,282.888C1182.17,264.372 1377.47,349.974 1476.7,352.769C1575.93,355.564 1717.09,329.008 1803.75,334.6C1844.58,336.468 1884.93,341.909 1924.81,349.92L1927.36,354.568C1914.92,365.962 1910.94,384.636 1918.81,400.495L1957.63,478.674C1967.01,497.548 1989.71,505.454 2008.71,496.667L2042.24,542.547C2037.39,552.595 2036.87,564.648 2041.86,575.585L2078.08,655.005C2086.35,673.136 2106.85,681.859 2125.37,675.857L2171.85,739.462C2161.25,754.05 2161.95,774.572 2174.56,788.428L2233.31,852.991C2236.95,856.991 2241.23,860.056 2245.86,862.172C2193.8,925.773 2095.48,963.221 2003.6,1040.4C1898.78,1128.45 2037.14,1442.92 2070.69,1500.21C2104.23,1557.52 2197.87,1578.48 2161.54,1630.2C2150.77,1646.74 2134.48,1652.99 2116.96,1659.39L2115.26,1660.01ZM847.482,1150.64C831.038,1189.49 810.331,1227.29 799.161,1268.2C786.038,1323.61 857.153,1383.37 885.195,1417.83L885.523,1418.24L895.04,1427.97L910.675,1432.59C930.323,1423.79 969.816,1437.38 990.766,1444.02C952.189,1401.26 894.071,1338.46 852.198,1298.87C838.454,1250.93 844.319,1202.7 847.276,1153.77L847.869,1149.73L847.482,1150.64ZM2204.69,747.057C2210.11,746.654 2215.66,748.66 2219.61,752.992L2272.83,811.486C2273.56,812.289 2274.2,813.14 2274.76,814.025C2273.9,815.765 2273.04,817.502 2272.17,819.237L2271.96,818.987C2267.91,814.162 2260.71,813.528 2255.89,817.573C2251.06,821.617 2250.43,828.819 2254.47,833.644L2260.72,841.1C2260.53,841.432 2260.33,841.763 2260.12,842.105C2254.86,842.342 2249.55,840.328 2245.73,836.138L2192.51,777.644C2188.05,772.741 2186.75,766.069 2188.49,760.138C2192.2,762.015 2196.8,761.794 2200.39,759.176C2204.28,756.327 2205.85,751.463 2204.69,747.057ZM1987.73,364.649L1989.02,364.991C2028.29,173.661 2031.06,32.646 2124.15,0C2178.78,8.629 2220.88,83.078 2252.04,122.856L2252.17,122.834C2315.63,120.331 2376.02,136.431 2436.07,154.301C2544.78,138.873 2636,77.826 2732,30.337C2731.7,31.834 2730.13,32.34 2729.2,33.347C2634.72,109.755 2621.52,238.959 2632.64,358.439C2636.77,420.439 2619.25,487.752 2597.6,551.231C2557.07,654.654 2478.79,763.669 2387.95,758.078C2353.61,756.991 2333.66,737.546 2308.13,716.785C2304.93,743.958 2295.67,769.241 2284.46,793.762L2232.03,736.138C2221.13,724.16 2204.44,720.567 2190.08,725.744L2144.07,662.774C2152.66,651.719 2154.98,636.379 2148.77,622.767L2112.55,543.347C2103.66,523.838 2080.6,515.223 2061.09,524.119C2060.07,524.581 2059.09,525.082 2058.13,525.62L2025.77,481.336C2032.31,470.367 2033.32,456.398 2027.23,444.117L1988.4,365.937C1988.19,365.501 1987.96,365.071 1987.73,364.649ZM2072.94,545.883L2078.73,553.809C2082.45,558.892 2081.34,566.035 2076.25,569.75C2071.63,573.132 2065.29,572.514 2061.39,568.54C2061.62,569.301 2061.91,570.055 2062.24,570.798L2095.06,642.753C2097.99,649.171 2104.16,653.089 2110.76,653.444C2110.26,649.464 2111.88,645.34 2115.35,642.808C2119.33,639.893 2124.59,639.95 2128.47,642.567C2130.51,637.947 2130.64,632.508 2128.39,627.554L2095.57,555.6C2091.62,546.941 2081.76,542.833 2072.94,545.883ZM1961.66,369.671L1964.56,374.963C1967.59,380.484 1965.57,387.424 1960.05,390.451C1954.53,393.479 1947.59,391.455 1944.56,385.935L1939.83,377.305C1936.64,382.504 1936.12,389.178 1939.03,395.037L1974.2,465.867C1977.85,473.212 1985.78,477.034 1993.48,475.813L1988.73,469.324C1985.02,464.241 1986.13,457.098 1991.21,453.383C1996.3,449.668 2003.44,450.779 2007.15,455.862L2008.91,458.27C2009,455.352 2008.4,452.371 2007.01,449.575L1971.84,378.745C1969.65,374.351 1965.94,371.218 1961.66,369.671Z"/>
    </g>
</svg>
